{
   "accessors" : [
      {
         "bufferView" : 0,
         "componentType" : 5123,
         "count" : 375,
         "max" : [ 374 ],
         "min" : [ 0 ],
         "name" : "buffer-0-accessor-indices-buffer-0-mesh-0",
         "type" : "SCALAR"
      },
      {
         "bufferView" : 2,
         "componentType" : 5126,
         "count" : 375,
         "max" : [ 36.76089859008789, 76.78829956054688, 38.3578987121582 ],
         "min" : [ -40.722900390625, 0, -20.19099998474121 ],
         "name" : "buffer-0-accessor-position-buffer-0-mesh-0",
         "type" : "VEC3"
      },
      {
         "bufferView" : 2,
         "byteOffset" : 4500,
         "componentType" : 5126,
         "count" : 375,
         "max" : [ 0.9779000282287598, 0.9836000204086304, 0.9079999923706055 ],
         "min" : [ -0.9779000282287598, -0.9904999732971191, -0.6510999798774719 ],
         "name" : "buffer-0-accessor-normal-buffer-0-mesh-0",
         "type" : "VEC3"
      },
      {
         "bufferView" : 1,
         "componentType" : 5126,
         "count" : 375,
         "max" : [ 0.9656000137329102, 0 ],
         "min" : [ -0.2000000029802322, -1 ],
         "name" : "buffer-0-accessor-texcoord-buffer-0-mesh-0",
         "type" : "VEC2"
      },
      {
         "bufferView" : 3,
         "componentType" : 5126,
         "count" : 0,
         "max" : [ 0, 0, 0, 0 ],
         "min" : [ 0, 0, 0, 0 ],
         "name" : "buffer-0-accessor-color-buffer-0-mesh-0",
         "type" : "VEC4"
      },
      {
         "bufferView" : 0,
         "byteOffset" : 750,
         "componentType" : 5123,
         "count" : 291,
         "max" : [ 290 ],
         "min" : [ 0 ],
         "name" : "buffer-0-accessor-indices-buffer-0-mesh-0",
         "type" : "SCALAR"
      },
      {
         "bufferView" : 2,
         "byteOffset" : 9000,
         "componentType" : 5126,
         "count" : 291,
         "max" : [ 34.29579925537109, 76.78829956054688, 38.3578987121582 ],
         "min" : [ -36.70479965209961, 0, -32.56740188598633 ],
         "name" : "buffer-0-accessor-position-buffer-0-mesh-0",
         "type" : "VEC3"
      },
      {
         "bufferView" : 2,
         "byteOffset" : 12492,
         "componentType" : 5126,
         "count" : 291,
         "max" : [ 0.9014000296592712, 0.9836000204086304, 0.9501000046730042 ],
         "min" : [ -0.9672999978065491, -0.7836999893188477, -0.9915000200271606 ],
         "name" : "buffer-0-accessor-normal-buffer-0-mesh-0",
         "type" : "VEC3"
      },
      {
         "bufferView" : 1,
         "byteOffset" : 3000,
         "componentType" : 5126,
         "count" : 291,
         "max" : [ 0.9656000137329102, 0 ],
         "min" : [ 0, -1 ],
         "name" : "buffer-0-accessor-texcoord-buffer-0-mesh-0",
         "type" : "VEC2"
      },
      {
         "bufferView" : 3,
         "componentType" : 5126,
         "count" : 0,
         "max" : [ 0, 0, 0, 0 ],
         "min" : [ 0, 0, 0, 0 ],
         "name" : "buffer-0-accessor-color-buffer-0-mesh-0",
         "type" : "VEC4"
      },
      {
         "bufferView" : 0,
         "byteOffset" : 1332,
         "componentType" : 5123,
         "count" : 42,
         "max" : [ 41 ],
         "min" : [ 0 ],
         "name" : "buffer-0-accessor-indices-buffer-0-mesh-0",
         "type" : "SCALAR"
      },
      {
         "bufferView" : 2,
         "byteOffset" : 15984,
         "componentType" : 5126,
         "count" : 42,
         "max" : [ 18.84910011291504, 70.92949676513672, 36.05699920654297 ],
         "min" : [ -26.29949951171875, 0, 0 ],
         "name" : "buffer-0-accessor-position-buffer-0-mesh-0",
         "type" : "VEC3"
      },
      {
         "bufferView" : 2,
         "byteOffset" : 16488,
         "componentType" : 5126,
         "count" : 42,
         "max" : [ 0.2781000137329102, 0.7864000201225281, 0.9915000200271606 ],
         "min" : [ -0.6696000099182129, -0.6462000012397766, 0 ],
         "name" : "buffer-0-accessor-normal-buffer-0-mesh-0",
         "type" : "VEC3"
      },
      {
         "bufferView" : 1,
         "byteOffset" : 5328,
         "componentType" : 5126,
         "count" : 42,
         "max" : [ 0.5, 0 ],
         "min" : [ 0, -0.8824999928474426 ],
         "name" : "buffer-0-accessor-texcoord-buffer-0-mesh-0",
         "type" : "VEC2"
      },
      {
         "bufferView" : 3,
         "componentType" : 5126,
         "count" : 0,
         "max" : [ 0, 0, 0, 0 ],
         "min" : [ 0, 0, 0, 0 ],
         "name" : "buffer-0-accessor-color-buffer-0-mesh-0",
         "type" : "VEC4"
      },
      {
         "bufferView" : 0,
         "byteOffset" : 1416,
         "componentType" : 5123,
         "count" : 810,
         "max" : [ 809 ],
         "min" : [ 0 ],
         "name" : "buffer-0-accessor-indices-buffer-0-mesh-0",
         "type" : "SCALAR"
      },
      {
         "bufferView" : 2,
         "byteOffset" : 16992,
         "componentType" : 5126,
         "count" : 810,
         "max" : [ 36.76089859008789, 76.78829956054688, 29.53969955444336 ],
         "min" : [ -47.22629928588867, 0, -11.37279987335205 ],
         "name" : "buffer-0-accessor-position-buffer-0-mesh-0",
         "type" : "VEC3"
      },
      {
         "bufferView" : 2,
         "byteOffset" : 26712,
         "componentType" : 5126,
         "count" : 810,
         "max" : [ 0.9940000176429749, 0.9923999905586243, 0.9675999879837036 ],
         "min" : [ -0.9940000176429749, -0.98580002784729, -0.9675999879837036 ],
         "name" : "buffer-0-accessor-normal-buffer-0-mesh-0",
         "type" : "VEC3"
      },
      {
         "bufferView" : 1,
         "byteOffset" : 5664,
         "componentType" : 5126,
         "count" : 810,
         "max" : [ 0.949999988079071, 0 ],
         "min" : [ -0.2000000029802322, -1 ],
         "name" : "buffer-0-accessor-texcoord-buffer-0-mesh-0",
         "type" : "VEC2"
      },
      {
         "bufferView" : 3,
         "componentType" : 5126,
         "count" : 0,
         "max" : [ 0, 0, 0, 0 ],
         "min" : [ 0, 0, 0, 0 ],
         "name" : "buffer-0-accessor-color-buffer-0-mesh-0",
         "type" : "VEC4"
      },
      {
         "bufferView" : 0,
         "byteOffset" : 3036,
         "componentType" : 5123,
         "count" : 3144,
         "max" : [ 3143 ],
         "min" : [ 0 ],
         "name" : "buffer-0-accessor-indices-buffer-0-mesh-0",
         "type" : "SCALAR"
      },
      {
         "bufferView" : 2,
         "byteOffset" : 36432,
         "componentType" : 5126,
         "count" : 3144,
         "max" : [ 35.20560073852539, 81.79730224609375, 23.07399940490723 ],
         "min" : [ 0, 0, 0 ],
         "name" : "buffer-0-accessor-position-buffer-0-mesh-0",
         "type" : "VEC3"
      },
      {
         "bufferView" : 2,
         "byteOffset" : 74160,
         "componentType" : 5126,
         "count" : 3144,
         "max" : [ 0.9952999949455261, 0.9957000017166138, 0.9975000023841858 ],
         "min" : [ -0.8964999914169312, -0.8526999950408936, -0.9589999914169312 ],
         "name" : "buffer-0-accessor-normal-buffer-0-mesh-0",
         "type" : "VEC3"
      },
      {
         "bufferView" : 1,
         "byteOffset" : 12144,
         "componentType" : 5126,
         "count" : 3144,
         "max" : [ 0.958299994468689, 0 ],
         "min" : [ -0.04170000180602074, -1 ],
         "name" : "buffer-0-accessor-texcoord-buffer-0-mesh-0",
         "type" : "VEC2"
      },
      {
         "bufferView" : 3,
         "componentType" : 5126,
         "count" : 0,
         "max" : [ 0, 0, 0, 0 ],
         "min" : [ 0, 0, 0, 0 ],
         "name" : "buffer-0-accessor-color-buffer-0-mesh-0",
         "type" : "VEC4"
      },
      {
         "bufferView" : 0,
         "byteOffset" : 9324,
         "componentType" : 5123,
         "count" : 840,
         "max" : [ 839 ],
         "min" : [ 0 ],
         "name" : "buffer-0-accessor-indices-buffer-0-mesh-0",
         "type" : "SCALAR"
      },
      {
         "bufferView" : 2,
         "byteOffset" : 111888,
         "componentType" : 5126,
         "count" : 840,
         "max" : [ 29.4601993560791, 75.72869873046875, 22.18639945983887 ],
         "min" : [ 0, 0, 0 ],
         "name" : "buffer-0-accessor-position-buffer-0-mesh-0",
         "type" : "VEC3"
      },
      {
         "bufferView" : 2,
         "byteOffset" : 121968,
         "componentType" : 5126,
         "count" : 840,
         "max" : [ 0.9071999788284302, 0.8501999974250793, 0.9620000123977661 ],
         "min" : [ -0.9807999730110168, -0.9470999836921692, -0.9976000189781189 ],
         "name" : "buffer-0-accessor-normal-buffer-0-mesh-0",
         "type" : "VEC3"
      },
      {
         "bufferView" : 1,
         "byteOffset" : 37296,
         "componentType" : 5126,
         "count" : 840,
         "max" : [ 1, 0 ],
         "min" : [ 0, -1 ],
         "name" : "buffer-0-accessor-texcoord-buffer-0-mesh-0",
         "type" : "VEC2"
      },
      {
         "bufferView" : 3,
         "componentType" : 5126,
         "count" : 0,
         "max" : [ 0, 0, 0, 0 ],
         "min" : [ 0, 0, 0, 0 ],
         "name" : "buffer-0-accessor-color-buffer-0-mesh-0",
         "type" : "VEC4"
      },
      {
         "bufferView" : 0,
         "byteOffset" : 11004,
         "componentType" : 5123,
         "count" : 576,
         "max" : [ 575 ],
         "min" : [ 0 ],
         "name" : "buffer-0-accessor-indices-buffer-0-mesh-0",
         "type" : "SCALAR"
      },
      {
         "bufferView" : 2,
         "byteOffset" : 132048,
         "componentType" : 5126,
         "count" : 576,
         "max" : [ 29.8484001159668, 76.03679656982422, 23.07399940490723 ],
         "min" : [ 0, 0, 0 ],
         "name" : "buffer-0-accessor-position-buffer-0-mesh-0",
         "type" : "VEC3"
      },
      {
         "bufferView" : 2,
         "byteOffset" : 138960,
         "componentType" : 5126,
         "count" : 576,
         "max" : [ 0, 0, 0 ],
         "min" : [ -0.9004999995231628, -0.9390000104904175, -0.1497000008821487 ],
         "name" : "buffer-0-accessor-normal-buffer-0-mesh-0",
         "type" : "VEC3"
      },
      {
         "bufferView" : 1,
         "byteOffset" : 44016,
         "componentType" : 5126,
         "count" : 576,
         "max" : [ 1, 0 ],
         "min" : [ -0.04170000180602074, -1 ],
         "name" : "buffer-0-accessor-texcoord-buffer-0-mesh-0",
         "type" : "VEC2"
      },
      {
         "bufferView" : 3,
         "componentType" : 5126,
         "count" : 0,
         "max" : [ 0, 0, 0, 0 ],
         "min" : [ 0, 0, 0, 0 ],
         "name" : "buffer-0-accessor-color-buffer-0-mesh-0",
         "type" : "VEC4"
      }
   ],
   "asset" : {
      "generator" : "Obj2GltfConverter",
      "version" : "2.0"
   },
   "bufferViews" : [
      {
         "buffer" : 0,
         "byteLength" : 12156,
         "byteStride" : 0,
         "name" : "buffer-0-bufferview-ushort",
         "target" : 34963
      },
      {
         "buffer" : 0,
         "byteLength" : 48624,
         "byteOffset" : 12160,
         "byteStride" : 8,
         "name" : "buffer-0-bufferview-vec2",
         "target" : 34962
      },
      {
         "buffer" : 0,
         "byteLength" : 145872,
         "byteOffset" : 60792,
         "byteStride" : 12,
         "name" : "buffer-0-bufferview-vec3",
         "target" : 34962
      },
      {
         "buffer" : 0,
         "byteLength" : 1,
         "name" : "buffer-0-bufferview-vec4"
      }
   ],
   "buffers" : [
      {
         "byteLength" : 206672,
         "name" : "buffer-0",
         "uri" : "Earth_1227.bin"
      }
   ],
   "materials" : [
      {
         "doubleSided" : true,
         "name" : "01___Default",
         "pbrMetallicRoughness" : {
            "baseColorFactor" : [ 0.3137, 0.1176, 0.0235, 1 ],
            "metallicFactor" : 0,
            "roughnessFactor" : 0.9699476628648295
         }
      },
      {
         "doubleSided" : true,
         "name" : "03___Default",
         "pbrMetallicRoughness" : {
            "baseColorFactor" : [ 0.1529, 0.298, 0.0549, 1 ],
            "metallicFactor" : 0,
            "roughnessFactor" : 0.9699476628648295
         }
      },
      {
         "doubleSided" : true,
         "name" : "02___Default",
         "pbrMetallicRoughness" : {
            "baseColorFactor" : [ 0.0275, 0.2667, 0.451, 1 ],
            "metallicFactor" : 0,
            "roughnessFactor" : 0.9699476628648295
         }
      },
      {
         "doubleSided" : true,
         "name" : "07___Default",
         "pbrMetallicRoughness" : {
            "metallicFactor" : 0,
            "roughnessFactor" : 0.9699476628648295
         }
      },
      {
         "doubleSided" : true,
         "name" : "04___Default",
         "pbrMetallicRoughness" : {
            "baseColorFactor" : [ 0.0196, 0.2431, 0.0353, 1 ],
            "metallicFactor" : 0,
            "roughnessFactor" : 0.9699476628648295
         }
      },
      {
         "doubleSided" : true,
         "name" : "08___Default",
         "pbrMetallicRoughness" : {
            "baseColorFactor" : [ 0.0471, 0.0196, 0.0118, 1 ],
            "metallicFactor" : 0,
            "roughnessFactor" : 0.9699476628648295
         }
      },
      {
         "doubleSided" : true,
         "name" : "Material__204",
         "pbrMetallicRoughness" : {
            "baseColorFactor" : [ 0.588, 0.588, 0.588, 1 ],
            "metallicFactor" : 0,
            "roughnessFactor" : 0.9699476628648295
         }
      }
   ],
   "meshes" : [
      {
         "name" : "buffer-0-mesh-0",
         "primitives" : [
            {
               "attributes" : {
                  "NORMAL" : 2,
                  "POSITION" : 1,
                  "TEXCOORD_0" : 3
               },
               "indices" : 0,
               "material" : 0
            },
            {
               "attributes" : {
                  "NORMAL" : 7,
                  "POSITION" : 6,
                  "TEXCOORD_0" : 8
               },
               "indices" : 5,
               "material" : 1
            },
            {
               "attributes" : {
                  "NORMAL" : 12,
                  "POSITION" : 11,
                  "TEXCOORD_0" : 13
               },
               "indices" : 10,
               "material" : 2
            },
            {
               "attributes" : {
                  "NORMAL" : 17,
                  "POSITION" : 16,
                  "TEXCOORD_0" : 18
               },
               "indices" : 15,
               "material" : 3
            },
            {
               "attributes" : {
                  "NORMAL" : 22,
                  "POSITION" : 21,
                  "TEXCOORD_0" : 23
               },
               "indices" : 20,
               "material" : 4
            },
            {
               "attributes" : {
                  "NORMAL" : 27,
                  "POSITION" : 26,
                  "TEXCOORD_0" : 28
               },
               "indices" : 25,
               "material" : 5
            },
            {
               "attributes" : {
                  "NORMAL" : 32,
                  "POSITION" : 31,
                  "TEXCOORD_0" : 33
               },
               "indices" : 30,
               "material" : 6
            }
         ]
      }
   ],
   "nodes" : [
      {
         "mesh" : 0,
         "name" : "node-0"
      }
   ],
   "scenes" : [
      {
         "name" : "scene-0",
         "nodes" : [ 0 ]
      }
   ]
}
